<svg xmlns="http://www.w3.org/2000/svg" width="48" height="48" fill="currentColor" viewBox="0 0 48 48"><path d="M23.966 4h-4.539c-.479 0-.912.193-1.227.506l-8.699 8.701a1.74 1.74 0 0 0 1.231 2.967h13.234c4.894 0 7.826 4.177 7.826 7.826a7.826 7.826 0 0 1-7.826 7.826 7.759 7.759 0 0 1-4.176-1.219l5.386-5.386a1.739 1.739 0 0 0-1.219-2.968H7.519c-1.006 0-1.785.338-2.466 1.019a3.47 3.47 0 0 0-1.012 2.678C4.84 34.903 12.657 44 23.966 44c11.046 0 20-8.954 20-20 0-11.435-9.145-20-20-20Zm0 9.674H12.569L19.742 6.5h4.224c3.541 0 7.192 1.197 10.243 3.374.39.317.697.8.697 1.359 0 .484-.204.929-.522 1.246l-3.691 3.691c-1.72-1.511-3.999-2.496-6.727-2.496ZM6.535 25.762a.967.967 0 0 1 .286-.722c.225-.225.375-.286.698-.286h14.59l-9.582 9.591a4.05 4.05 0 0 0-.495.608c-.016.024-.029.049-.044.073a3.82 3.82 0 0 0-.284.527 4.249 4.249 0 0 0-.108.249c-.056.148-.103.293-.152.434-2.571-2.487-4.521-6.637-4.909-10.473v-.001ZM23.966 41.5c-3.378 0-6.644-.986-9.448-2.79a1.728 1.728 0 0 1-.715-1.388c0-.484.203-.931.521-1.248l3.67-3.67a10.21 10.21 0 0 0 5.972 1.922c5.694 0 10.326-4.632 10.326-10.326 0-2.057-.687-4.177-1.934-5.96l3.825-3.825a4.243 4.243 0 0 0 1.024-1.65c2.577 2.919 4.259 6.794 4.259 11.435 0 9.65-7.85 17.5-17.5 17.5Z"/></svg>