<svg xmlns="http://www.w3.org/2000/svg" width="48" height="49" fill="currentColor" viewBox="0 0 48 49">
  <path fill="#000" fill-rule="evenodd" d="M45.15 22.8c1.47 7.19-1.33 14.25-6.66 18.57-2.7 2.24-5.97 3.87-9.65 4.62-11.58 2.36-22.9-4.86-25.72-16.23a21.91 21.91 0 0 1-.63-6.48c0-.99.13-2.02.36-2.97.79-3.24 2.82-6.15 5.88-7.92.87-.5 1.77-.88 2.69-1.15.79-1.2 1.68-2.33 2.68-3.39 1.22-1.3 2.6-2.48 4.13-3.51.26-.19.6-.4.87-.56 3.65-2.08 8.44-1.5 11.64 1.7.96.95 1.68 2.05 2.17 3.22 6.05 2.16 10.86 7.34 12.24 14.1Zm-27.33 1c-2.38-4.51-3.56-8.27-3.89-11.41-.23.21-.46.42-.68.64-3.86 6.2-4.56 14.13-1.31 21.12 2.74 1.11 6.18 1.5 10.41.67.89-.175 1.888-.635 2.948-1.302-2.55-2.31-5.269-5.529-7.478-9.718Zm9.56 8.22c1.3-1.041 2.646-2.295 3.97-3.64 3.23-3.27 8.53-3.09 11.62-.33.14-1.55.06-3.15-.27-4.75-1.83-8.92-10.54-14.68-19.46-12.86-2.49.51-4.74 1.55-6.64 2.99 0 1.78.69 4 3.43 9.2 2.18 4.13 4.89 7.24 7.35 9.39Zm9.57 7.37-.51.42a19.41 19.41 0 0 1-8.12 3.73c-8.16 1.67-16.17-2.03-20.37-8.68 3.63 2.46 8.57 3.66 14.87 2.42 1.81-.36 3.62-1.43 5.25-2.64 1.68-1.25 3.41-2.83 5.05-4.5 2.79-2.83 7.62-1.89 9.23 1.12-.65 2.23-1.78 4.28-3.27 6.04-.65.75-1.36 1.45-2.13 2.09Z" clip-rule="evenodd"/>
</svg>
