<svg xmlns="http://www.w3.org/2000/svg" width="48" height="48" fill="currentColor" viewBox="0 0 48 48">
  <path fill="#212121" fill-rule="evenodd" d="M36.605 6.487c.636 0 1.15.515 1.15 1.15v32.726a1.15 1.15 0 0 1-1.15 1.15H31.91V16.586a3 3 0 0 0-3-3h-2V7.637c0-.635.516-1.15 1.15-1.15h8.546ZM7.758 41a3 3 0 0 0 3 3h26.484a3 3 0 0 0 3-3V7a3 3 0 0 0-3-3h-9.819a3 3 0 0 0-3 3v6.586h-5.332a3 3 0 0 0-3 3v7.002h-5.333a3 3 0 0 0-3 3V41Zm20.515-24.927c.635 0 1.15.515 1.15 1.15v24.29h-5.846V26.588a3 3 0 0 0-3-3h-2v-6.365c0-.635.515-1.15 1.15-1.15h8.546ZM19.94 26.075c.635 0 1.15.515 1.15 1.15v14.288h-9.696a1.15 1.15 0 0 1-1.15-1.15V27.225c0-.635.515-1.15 1.15-1.15h8.546Z" clip-rule="evenodd"/>
</svg>
