<svg xmlns="http://www.w3.org/2000/svg" width="48" height="48" fill="currentColor" viewBox="0 0 48 48">
  <path fill="#212121" fill-rule="evenodd" d="M38.5 9.8h-.02L25.54 4.36C25.01 4.13 24.42 4 23.8 4c-.62 0-1.18.13-1.67.32h-.02L9.83 9.31c-.91.37-1.52 1.24-1.56 2.23-.02.43.1.85.29 1.22l7.45 12.04-7.03 7.46-.06.07c-1.32 1.62-1.23 4.06.31 5.56.34.33.72.59 1.14.78l.04.02 12.91 5.23c.43.1.87.08 1.26-.08l13.54-6.12c.15-.07.29-.16.41-.28.6-.57.65-1.56.12-2.21l-5.87-7.08 7.52-12.53c.37-.64.56-1.36.56-2.09 0-1.56-.88-3.06-2.37-3.72l.01-.01Zm-.34 4.54L31.1 26.11l-8.82 14.71-10.88-4.43c-.15-.07-.28-.16-.4-.28-.59-.57-.65-1.55-.12-2.2l12.19-12.96c.34-.41.53-.94.53-1.53 0-.94-.52-1.71-1.25-2.12l-11.58-5.68.92-.37 11.34-4.6c.24-.09.5-.15.77-.15s.53.06.77.16l12.92 5.42c.53.23.89.79.89 1.44 0 .3-.08.58-.22.81v.01Z" clip-rule="evenodd"/>
</svg>
