<svg width="32" height="33" viewBox="0 0 32 33" fill="none" xmlns="http://www.w3.org/2000/svg">
<path d="M16.8096 4.58273C16.3428 4.18596 15.6572 4.18596 15.1904 4.58273L5.44044 12.8702C5.16103 13.1077 5 13.4559 5 13.8226V26.7821C5 27.0583 5.22386 27.2821 5.5 27.2821H15V27.7821C15 28.3489 15.1672 28.8516 15.4217 29.2821H5.5C4.11929 29.2821 3 28.1628 3 26.7821V13.8226C3 12.8692 3.41868 11.9638 4.14515 11.3463L13.8952 3.05885C15.1088 2.02726 16.8912 2.02726 18.1049 3.05885L27.8549 11.3463C28.5813 11.9638 29 12.8692 29 13.8226V15.2648C28.3999 15.0111 27.726 14.8023 27 14.6434V13.8226C27 13.4559 26.839 13.1077 26.5596 12.8702L16.8096 4.58273ZM17.4365 29.2821C16.8409 28.8409 16.5 28.3286 16.5 27.7821V21.4548C16.9364 21.785 17.4365 22.0581 17.9594 22.2822C19.4538 22.9226 21.4137 23.2821 23.5 23.2821C24.7343 23.2821 25.9244 23.1563 27 22.9209C27.726 22.762 28.3999 22.5532 29 22.2995C29.0136 22.2937 29.0271 22.288 29.0406 22.2822C29.5635 22.0581 30.0636 21.785 30.5 21.4548V27.7821C30.5 29.439 27.366 30.7821 23.5 30.7821C20.909 30.7821 18.6468 30.1788 17.4365 29.2821ZM29 20.6381C28.4507 20.9367 27.772 21.1894 27 21.3808C25.9704 21.636 24.775 21.7821 23.5 21.7821C19.634 21.7821 16.5 20.439 16.5 18.7821C16.5 17.1253 19.634 15.7821 23.5 15.7821C24.775 15.7821 25.9704 15.9282 27 16.1835C27.772 16.3749 28.4507 16.6276 29 16.9262C29.9394 17.4368 30.5 18.0814 30.5 18.7821C30.5 19.4829 29.9394 20.1275 29 20.6381Z" fill="black"/>
</svg>
