<svg width="32" height="33" viewBox="0 0 32 33" fill="none" xmlns="http://www.w3.org/2000/svg">
<path d="M7.5 3.73444C5.01472 3.73444 3 5.74915 3 8.23444V25.2344C3 27.7197 5.01472 29.7344 7.5 29.7344H16.2917C15.7549 29.1347 15.2974 28.4625 14.9355 27.7344H7.5C6.11929 27.7344 5 26.6151 5 25.2344V8.23444C5 6.85372 6.11929 5.73444 7.5 5.73444H24.5C25.8807 5.73444 27 6.85372 27 8.23444V15.67C27.7281 16.0318 28.4003 16.4893 29 17.0261V8.23444C29 5.74915 26.9853 3.73444 24.5 3.73444H7.5Z" fill="black"/>
<path d="M14.7682 20.0906C15.1476 19.2348 15.6565 18.4492 16.2701 17.7587C16.1825 17.7428 16.0922 17.7344 16 17.7344C15.1716 17.7344 14.5 18.406 14.5 19.2344C14.5 19.5527 14.5991 19.8478 14.7682 20.0906Z" fill="black"/>
<path d="M10.5 14.7344C11.3284 14.7344 12 14.0629 12 13.2344C12 12.406 11.3284 11.7344 10.5 11.7344C9.67157 11.7344 9 12.406 9 13.2344C9 14.0629 9.67157 14.7344 10.5 14.7344Z" fill="black"/>
<path d="M10.5 20.7344C11.3284 20.7344 12 20.0629 12 19.2344C12 18.406 11.3284 17.7344 10.5 17.7344C9.67157 17.7344 9 18.406 9 19.2344C9 20.0629 9.67157 20.7344 10.5 20.7344Z" fill="black"/>
<path d="M17.5 13.2344C17.5 14.0629 16.8284 14.7344 16 14.7344C15.1716 14.7344 14.5 14.0629 14.5 13.2344C14.5 12.406 15.1716 11.7344 16 11.7344C16.8284 11.7344 17.5 12.406 17.5 13.2344Z" fill="black"/>
<path d="M23 13.2344C23 14.0629 22.3284 14.7344 21.5 14.7344C20.6716 14.7344 20 14.0629 20 13.2344C20 12.406 20.6716 11.7344 21.5 11.7344C22.3284 11.7344 23 12.406 23 13.2344Z" fill="black"/>
<path d="M23 31.2344C27.1421 31.2344 30.5 27.8766 30.5 23.7344C30.5 19.5923 27.1421 16.2344 23 16.2344C18.8579 16.2344 15.5 19.5923 15.5 23.7344C15.5 27.8766 18.8579 31.2344 23 31.2344ZM23 29.2344C21.8425 29.2344 20.7685 28.8769 19.8825 28.2662L27.5318 20.6169C28.1424 21.503 28.5 22.577 28.5 23.7344C28.5 26.772 26.0376 29.2344 23 29.2344ZM26.1176 19.2027L18.4683 26.852C17.8576 25.9659 17.5 24.892 17.5 23.7344C17.5 20.6969 19.9624 18.2344 23 18.2344C24.1575 18.2344 25.2315 18.592 26.1176 19.2027Z" fill="black"/>
</svg>
